<mxfile version="13.3.7" type="github" host="app.diagrams.net" modified="2020-07-05T09:12:27.576Z" agent="5.0 (Windows NT 10.0; Win64; x64) AppleWebKit/537.36 (KHTML, like Gecko) Chrome/70.0.3538.102 Safari/537.36 Edge/18.18363" etag="0z6eihb8Rysd3entES9D">
  <diagram id="GD6MSlv56OQSFq1m1WcK" name="Page-1">
    <mxGraphModel grid="1" shadow="0" math="0" pageHeight="3300" pageWidth="2339" pageScale="1" page="1" fold="1" arrows="1" connect="1" tooltips="1" guides="1" gridSize="10" dy="792" dx="1662">
      <root>
        <mxCell id="0" />
        <mxCell id="1" parent="0" />
        <mxCell id="cYIk8vQscPwPbdmaifht-1" value="PC" parent="1" vertex="1" style="rounded=0;whiteSpace=wrap;html=1;">
          <mxGeometry as="geometry" height="90" width="60" y="850" x="120" />
        </mxCell>
        <mxCell id="cYIk8vQscPwPbdmaifht-2" value="" parent="1" style="endArrow=classic;html=1;" source="cYIk8vQscPwPbdmaifht-3" edge="1">
          <mxGeometry as="geometry" height="50" width="50" relative="1">
            <mxPoint as="sourcePoint" y="870" x="80" />
            <mxPoint as="targetPoint" y="870" x="120" />
          </mxGeometry>
        </mxCell>
        <mxCell id="cYIk8vQscPwPbdmaifht-3" value="clk" parent="1" vertex="1" style="text;html=1;align=center;verticalAlign=middle;resizable=0;points=[];autosize=1;">
          <mxGeometry as="geometry" height="20" width="30" y="860" x="70" />
        </mxCell>
        <mxCell id="cYIk8vQscPwPbdmaifht-4" value="" parent="1" style="endArrow=classic;html=1;" source="cYIk8vQscPwPbdmaifht-5" edge="1">
          <mxGeometry as="geometry" height="50" width="50" relative="1">
            <mxPoint as="sourcePoint" y="895" x="80" />
            <mxPoint as="targetPoint" y="895" x="120" />
          </mxGeometry>
        </mxCell>
        <mxCell id="cYIk8vQscPwPbdmaifht-5" value="rst" parent="1" vertex="1" style="text;html=1;align=center;verticalAlign=middle;resizable=0;points=[];autosize=1;">
          <mxGeometry as="geometry" height="20" width="30" y="885" x="70" />
        </mxCell>
        <mxCell id="cYIk8vQscPwPbdmaifht-6" value="&lt;font style=&quot;font-size: 9px&quot;&gt;hazard&amp;amp;brunchbubble&lt;/font&gt;" parent="1" vertex="1" style="rounded=0;whiteSpace=wrap;html=1;">
          <mxGeometry as="geometry" height="40" width="90" y="740" x="190" />
        </mxCell>
        <mxCell id="cYIk8vQscPwPbdmaifht-7" value="" parent="1" style="endArrow=classic;html=1;entryX=0.556;entryY=-0.014;entryDx=0;entryDy=0;exitX=0.535;exitY=1.138;exitDx=0;exitDy=0;exitPerimeter=0;entryPerimeter=0;" source="cYIk8vQscPwPbdmaifht-8" edge="1" target="cYIk8vQscPwPbdmaifht-6">
          <mxGeometry as="geometry" height="50" width="50" relative="1">
            <mxPoint as="sourcePoint" y="700" x="233" />
            <mxPoint as="targetPoint" y="650" x="250" />
          </mxGeometry>
        </mxCell>
        <mxCell id="cYIk8vQscPwPbdmaifht-8" value="&lt;font style=&quot;font-size: 8px&quot;&gt;ex_memtoreg,ex_regWr,ex_rw,id_ra,id_rb&lt;/font&gt;" parent="1" vertex="1" style="text;html=1;align=center;verticalAlign=middle;resizable=0;points=[];autosize=1;">
          <mxGeometry as="geometry" height="20" width="160" y="690" x="155" />
        </mxCell>
        <mxCell id="cYIk8vQscPwPbdmaifht-9" value="" parent="1" style="endArrow=classic;html=1;exitX=0;exitY=0.5;exitDx=0;exitDy=0;entryX=0.5;entryY=0;entryDx=0;entryDy=0;" source="cYIk8vQscPwPbdmaifht-6" edge="1" target="cYIk8vQscPwPbdmaifht-1">
          <mxGeometry as="geometry" height="50" width="50" relative="1">
            <mxPoint as="sourcePoint" y="860" x="210" />
            <mxPoint as="targetPoint" y="810" x="260" />
            <Array as="points">
              <mxPoint y="760" x="150" />
            </Array>
          </mxGeometry>
        </mxCell>
        <mxCell id="cYIk8vQscPwPbdmaifht-10" value="Hazard,Brunchbubble" parent="cYIk8vQscPwPbdmaifht-9" vertex="1" style="edgeLabel;html=1;align=center;verticalAlign=middle;resizable=0;points=[];" connectable="0">
          <mxGeometry as="geometry" y="1" x="0.2944" relative="1">
            <mxPoint as="offset" />
          </mxGeometry>
        </mxCell>
        <mxCell id="cYIk8vQscPwPbdmaifht-11" value="IFID" parent="1" vertex="1" style="rounded=0;whiteSpace=wrap;html=1;">
          <mxGeometry as="geometry" height="190" width="70" y="800" x="245" />
        </mxCell>
        <mxCell id="cYIk8vQscPwPbdmaifht-12" value="pc_plus_4&lt;br&gt;if_ins&lt;br&gt;" parent="1" style="endArrow=classic;html=1;exitX=1;exitY=0.5;exitDx=0;exitDy=0;entryX=0;entryY=0.5;entryDx=0;entryDy=0;" source="cYIk8vQscPwPbdmaifht-1" edge="1" target="cYIk8vQscPwPbdmaifht-11">
          <mxGeometry as="geometry" height="50" width="50" relative="1">
            <mxPoint as="sourcePoint" y="860" x="210" />
            <mxPoint as="targetPoint" y="895" x="240" />
          </mxGeometry>
        </mxCell>
        <mxCell id="cYIk8vQscPwPbdmaifht-13" value="" parent="1" style="endArrow=classic;html=1;" source="cYIk8vQscPwPbdmaifht-14" edge="1">
          <mxGeometry as="geometry" height="50" width="50" relative="1">
            <mxPoint as="sourcePoint" y="830" x="205" />
            <mxPoint as="targetPoint" y="830" x="245" />
          </mxGeometry>
        </mxCell>
        <mxCell id="cYIk8vQscPwPbdmaifht-14" value="clk" parent="1" vertex="1" style="text;html=1;align=center;verticalAlign=middle;resizable=0;points=[];autosize=1;">
          <mxGeometry as="geometry" height="20" width="30" y="820" x="195" />
        </mxCell>
        <mxCell id="cYIk8vQscPwPbdmaifht-15" value="" parent="1" style="endArrow=classic;html=1;entryX=-0.021;entryY=0.11;entryDx=0;entryDy=0;entryPerimeter=0;" edge="1" target="cYIk8vQscPwPbdmaifht-11">
          <mxGeometry as="geometry" height="50" width="50" relative="1">
            <mxPoint as="sourcePoint" y="820" x="150" />
            <mxPoint as="targetPoint" y="821" x="240" />
          </mxGeometry>
        </mxCell>
        <mxCell id="cYIk8vQscPwPbdmaifht-16" value="NPC" parent="1" vertex="1" style="rounded=0;whiteSpace=wrap;html=1;">
          <mxGeometry as="geometry" height="50" width="90" y="1020" x="339" />
        </mxCell>
        <mxCell id="cYIk8vQscPwPbdmaifht-17" value="" parent="1" style="endArrow=classic;html=1;entryX=0.204;entryY=-0.088;entryDx=0;entryDy=0;entryPerimeter=0;" edge="1" target="cYIk8vQscPwPbdmaifht-16">
          <mxGeometry as="geometry" height="50" width="50" relative="1">
            <mxPoint as="sourcePoint" y="960" x="314" />
            <mxPoint as="targetPoint" y="810" x="500" />
            <Array as="points">
              <mxPoint y="960" x="357" />
            </Array>
          </mxGeometry>
        </mxCell>
        <mxCell id="cYIk8vQscPwPbdmaifht-18" value="id_PC_plus_4" parent="cYIk8vQscPwPbdmaifht-17" vertex="1" style="edgeLabel;html=1;align=center;verticalAlign=middle;resizable=0;points=[];" connectable="0">
          <mxGeometry as="geometry" y="-1" x="-0.35" relative="1">
            <mxPoint as="offset" x="17.43" />
          </mxGeometry>
        </mxCell>
        <mxCell id="cYIk8vQscPwPbdmaifht-19" value="" parent="1" style="endArrow=classic;html=1;exitX=0.972;exitY=0.84;exitDx=0;exitDy=0;exitPerimeter=0;entryX=0;entryY=0;entryDx=0;entryDy=0;" source="cYIk8vQscPwPbdmaifht-1" edge="1" target="cYIk8vQscPwPbdmaifht-16">
          <mxGeometry as="geometry" height="50" width="50" relative="1">
            <mxPoint as="sourcePoint" y="860" x="450" />
            <mxPoint as="targetPoint" y="1010" x="339" />
            <Array as="points">
              <mxPoint y="926" x="210" />
              <mxPoint y="990" x="210" />
              <mxPoint y="990" x="340" />
            </Array>
          </mxGeometry>
        </mxCell>
        <mxCell id="cYIk8vQscPwPbdmaifht-20" value="" parent="1" style="endArrow=classic;html=1;entryX=0.882;entryY=0.004;entryDx=0;entryDy=0;entryPerimeter=0;" edge="1" target="cYIk8vQscPwPbdmaifht-16">
          <mxGeometry as="geometry" height="50" width="50" relative="1">
            <mxPoint as="sourcePoint" y="820" x="210" />
            <mxPoint as="targetPoint" y="810" x="510" />
            <Array as="points">
              <mxPoint y="790" x="210" />
              <mxPoint y="790" x="420" />
            </Array>
          </mxGeometry>
        </mxCell>
        <mxCell id="cYIk8vQscPwPbdmaifht-21" value="decoder&amp;amp;&lt;br&gt;control" parent="1" vertex="1" style="rounded=0;whiteSpace=wrap;html=1;">
          <mxGeometry as="geometry" height="110" width="70" y="800" x="440" />
        </mxCell>
        <mxCell id="cYIk8vQscPwPbdmaifht-22" value="" parent="1" style="endArrow=classic;html=1;entryX=-0.024;entryY=0.455;entryDx=0;entryDy=0;entryPerimeter=0;" edge="1" target="cYIk8vQscPwPbdmaifht-21">
          <mxGeometry as="geometry" height="50" width="50" relative="1">
            <mxPoint as="sourcePoint" y="850" x="315" />
            <mxPoint as="targetPoint" y="810" x="470" />
          </mxGeometry>
        </mxCell>
        <mxCell id="cYIk8vQscPwPbdmaifht-23" value="id_ins&lt;br&gt;" parent="cYIk8vQscPwPbdmaifht-22" vertex="1" style="edgeLabel;html=1;align=center;verticalAlign=middle;resizable=0;points=[];" connectable="0">
          <mxGeometry as="geometry" y="-1" x="0.1973" relative="1">
            <mxPoint as="offset" y="-1.03" x="-8.71" />
          </mxGeometry>
        </mxCell>
        <mxCell id="cYIk8vQscPwPbdmaifht-24" value="" parent="1" style="endArrow=classic;html=1;exitX=0.25;exitY=1;exitDx=0;exitDy=0;entryX=1;entryY=0.25;entryDx=0;entryDy=0;" source="cYIk8vQscPwPbdmaifht-21" edge="1" target="cYIk8vQscPwPbdmaifht-16">
          <mxGeometry as="geometry" height="50" width="50" relative="1">
            <mxPoint as="sourcePoint" y="980" x="530" />
            <mxPoint as="targetPoint" y="930" x="580" />
            <Array as="points">
              <mxPoint y="1033" x="458" />
            </Array>
          </mxGeometry>
        </mxCell>
        <mxCell id="cYIk8vQscPwPbdmaifht-25" value="&lt;font style=&quot;font-size: 7px&quot;&gt;id_branch_beq&lt;br&gt;id_branch_bne&lt;br&gt;id_bgtz&lt;br&gt;id_bgez&lt;br&gt;id_bltz&lt;br&gt;id_blez&lt;br&gt;id_imm16&lt;br&gt;id_cp0op&lt;br&gt;(预测)&lt;/font&gt;" parent="cYIk8vQscPwPbdmaifht-24" vertex="1" style="edgeLabel;html=1;align=center;verticalAlign=middle;resizable=0;points=[];" connectable="0">
          <mxGeometry as="geometry" y="-1" x="-0.3852" relative="1">
            <mxPoint as="offset" y="13.14" />
          </mxGeometry>
        </mxCell>
        <mxCell id="cYIk8vQscPwPbdmaifht-26" value="flush" parent="1" style="endArrow=classic;html=1;exitX=-0.046;exitY=0.22;exitDx=0;exitDy=0;exitPerimeter=0;" source="cYIk8vQscPwPbdmaifht-16" edge="1">
          <mxGeometry as="geometry" height="50" width="50" relative="1">
            <mxPoint as="sourcePoint" y="1040" x="230" />
            <mxPoint as="targetPoint" y="990" x="280" />
            <Array as="points">
              <mxPoint y="1031" x="310" />
              <mxPoint y="1031" x="280" />
            </Array>
          </mxGeometry>
        </mxCell>
        <mxCell id="cYIk8vQscPwPbdmaifht-27" value="" parent="1" style="endArrow=classic;html=1;entryX=0.25;entryY=1;entryDx=0;entryDy=0;" edge="1" target="cYIk8vQscPwPbdmaifht-1">
          <mxGeometry as="geometry" height="50" width="50" relative="1">
            <mxPoint as="sourcePoint" y="1070" x="350" />
            <mxPoint as="targetPoint" y="1020" x="400" />
            <Array as="points">
              <mxPoint y="1110" x="350" />
              <mxPoint y="1110" x="135" />
            </Array>
          </mxGeometry>
        </mxCell>
        <mxCell id="cYIk8vQscPwPbdmaifht-28" value="pc_sel&lt;br&gt;predict_pc&lt;br&gt;NPC" parent="cYIk8vQscPwPbdmaifht-27" vertex="1" style="edgeLabel;html=1;align=center;verticalAlign=middle;resizable=0;points=[];" connectable="0">
          <mxGeometry as="geometry" y="-1" x="-0.0832" relative="1">
            <mxPoint as="offset" />
          </mxGeometry>
        </mxCell>
        <mxCell id="cYIk8vQscPwPbdmaifht-29" value="" parent="1" style="endArrow=classic;html=1;entryX=0;entryY=0.5;entryDx=0;entryDy=0;" edge="1" target="cYIk8vQscPwPbdmaifht-16">
          <mxGeometry as="geometry" height="50" width="50" relative="1">
            <mxPoint as="sourcePoint" y="1030" x="300" />
            <mxPoint as="targetPoint" y="980" x="350" />
            <Array as="points">
              <mxPoint y="1045" x="300" />
            </Array>
          </mxGeometry>
        </mxCell>
        <mxCell id="cYIk8vQscPwPbdmaifht-30" value="branch_predict&lt;br&gt;(用于BHT校验)" parent="1" style="endArrow=classic;html=1;entryX=0.659;entryY=1.013;entryDx=0;entryDy=0;entryPerimeter=0;" edge="1" target="cYIk8vQscPwPbdmaifht-16">
          <mxGeometry as="geometry" height="50" width="50" y="21" x="0.2135" relative="1">
            <mxPoint as="sourcePoint" y="1071" x="360" />
            <mxPoint as="targetPoint" y="1090" x="450" />
            <Array as="points">
              <mxPoint y="1140" x="360" />
              <mxPoint y="1140" x="398" />
            </Array>
            <mxPoint as="offset" y="10" x="3" />
          </mxGeometry>
        </mxCell>
        <mxCell id="cYIk8vQscPwPbdmaifht-31" value="IDEX" parent="1" vertex="1" style="rounded=0;whiteSpace=wrap;html=1;">
          <mxGeometry as="geometry" height="290" width="90" y="780" x="890" />
        </mxCell>
        <mxCell id="cYIk8vQscPwPbdmaifht-32" value="regfile" parent="1" vertex="1" style="rounded=0;whiteSpace=wrap;html=1;">
          <mxGeometry as="geometry" height="110" width="90" y="920" x="560" />
        </mxCell>
        <mxCell id="cYIk8vQscPwPbdmaifht-33" value="" parent="1" style="endArrow=classic;html=1;exitX=0.75;exitY=1;exitDx=0;exitDy=0;entryX=0;entryY=0.5;entryDx=0;entryDy=0;" source="cYIk8vQscPwPbdmaifht-21" edge="1" target="cYIk8vQscPwPbdmaifht-32">
          <mxGeometry as="geometry" height="50" width="50" relative="1">
            <mxPoint as="sourcePoint" y="940" x="610" />
            <mxPoint as="targetPoint" y="890" x="660" />
            <Array as="points">
              <mxPoint y="975" x="493" />
            </Array>
          </mxGeometry>
        </mxCell>
        <mxCell id="cYIk8vQscPwPbdmaifht-34" value="id_rs&lt;br&gt;id_rt&lt;br&gt;" parent="cYIk8vQscPwPbdmaifht-33" vertex="1" style="edgeLabel;html=1;align=center;verticalAlign=middle;resizable=0;points=[];" connectable="0">
          <mxGeometry as="geometry" y="26" x="-0.0561" relative="1">
            <mxPoint as="offset" y="-2.0799999999999983" />
          </mxGeometry>
        </mxCell>
        <mxCell id="cYIk8vQscPwPbdmaifht-35" value="" parent="1" style="endArrow=classic;html=1;entryX=-0.031;entryY=0.664;entryDx=0;entryDy=0;entryPerimeter=0;" edge="1" target="cYIk8vQscPwPbdmaifht-32">
          <mxGeometry as="geometry" height="50" width="50" relative="1">
            <mxPoint as="sourcePoint" y="993" x="360" />
            <mxPoint as="targetPoint" y="890" x="660" />
          </mxGeometry>
        </mxCell>
        <mxCell id="cYIk8vQscPwPbdmaifht-36" value="id_busA" parent="1" style="endArrow=classic;html=1;exitX=1.02;exitY=0.202;exitDx=0;exitDy=0;exitPerimeter=0;entryX=-0.084;entryY=0.79;entryDx=0;entryDy=0;entryPerimeter=0;" source="cYIk8vQscPwPbdmaifht-32" edge="1" target="cYIk8vQscPwPbdmaifht-44">
          <mxGeometry as="geometry" height="50" width="50" y="12" x="-0.0294" relative="1">
            <mxPoint as="sourcePoint" y="940" x="610" />
            <mxPoint as="targetPoint" y="942" x="710" />
            <mxPoint as="offset" />
          </mxGeometry>
        </mxCell>
        <mxCell id="cYIk8vQscPwPbdmaifht-37" value="id_busB" parent="1" style="endArrow=classic;html=1;exitX=1.02;exitY=0.202;exitDx=0;exitDy=0;exitPerimeter=0;" edge="1" target="cYIk8vQscPwPbdmaifht-41">
          <mxGeometry as="geometry" height="50" width="50" y="12" x="-0.0294" relative="1">
            <mxPoint as="sourcePoint" y="1010.22" x="650" />
            <mxPoint as="targetPoint" y="1010" x="708.2" />
            <mxPoint as="offset" />
          </mxGeometry>
        </mxCell>
        <mxCell id="cYIk8vQscPwPbdmaifht-38" value="brunchforward" parent="1" vertex="1" style="rounded=0;whiteSpace=wrap;html=1;">
          <mxGeometry as="geometry" height="40" width="90" y="1150" x="620" />
        </mxCell>
        <mxCell id="cYIk8vQscPwPbdmaifht-39" value="" parent="1" style="endArrow=classic;html=1;entryX=0;entryY=0.25;entryDx=0;entryDy=0;" edge="1" target="cYIk8vQscPwPbdmaifht-38">
          <mxGeometry as="geometry" height="50" width="50" relative="1">
            <mxPoint as="sourcePoint" y="970" x="540" />
            <mxPoint as="targetPoint" y="970" x="660" />
            <Array as="points">
              <mxPoint y="1160" x="540" />
            </Array>
          </mxGeometry>
        </mxCell>
        <mxCell id="cYIk8vQscPwPbdmaifht-40" value="branchforwardA" parent="1" style="endArrow=classic;html=1;exitX=0.75;exitY=0;exitDx=0;exitDy=0;entryX=0.25;entryY=1;entryDx=0;entryDy=0;" source="cYIk8vQscPwPbdmaifht-38" edge="1" target="cYIk8vQscPwPbdmaifht-41">
          <mxGeometry as="geometry" height="50" width="50" x="-0.3246" relative="1">
            <mxPoint as="sourcePoint" y="1020" x="610" />
            <mxPoint as="targetPoint" y="1060" x="720" />
            <Array as="points">
              <mxPoint y="1120" x="688" />
              <mxPoint y="1120" x="732" />
            </Array>
            <mxPoint as="offset" />
          </mxGeometry>
        </mxCell>
        <mxCell id="cYIk8vQscPwPbdmaifht-41" value="mux4" parent="1" vertex="1" style="rounded=0;whiteSpace=wrap;html=1;">
          <mxGeometry as="geometry" height="60" width="48.2" y="980" x="720" />
        </mxCell>
        <mxCell id="cYIk8vQscPwPbdmaifht-42" value="" parent="1" style="endArrow=classic;html=1;entryX=0.013;entryY=0.803;entryDx=0;entryDy=0;entryPerimeter=0;" edge="1" target="cYIk8vQscPwPbdmaifht-31">
          <mxGeometry as="geometry" height="50" width="50" relative="1">
            <mxPoint as="sourcePoint" y="1013" x="770" />
            <mxPoint as="targetPoint" y="970" x="660" />
          </mxGeometry>
        </mxCell>
        <mxCell id="cYIk8vQscPwPbdmaifht-43" value="id_busB_mux2" parent="cYIk8vQscPwPbdmaifht-42" vertex="1" style="edgeLabel;html=1;align=center;verticalAlign=middle;resizable=0;points=[];" connectable="0">
          <mxGeometry as="geometry" y="-1" x="0.235" relative="1">
            <mxPoint as="offset" y="-3.92" x="-24.86" />
          </mxGeometry>
        </mxCell>
        <mxCell id="cYIk8vQscPwPbdmaifht-44" value="mux4" parent="1" vertex="1" style="rounded=0;whiteSpace=wrap;html=1;">
          <mxGeometry as="geometry" height="55" width="48.2" y="900" x="720" />
        </mxCell>
        <mxCell id="cYIk8vQscPwPbdmaifht-45" value="" parent="1" style="endArrow=classic;html=1;entryX=0.013;entryY=0.803;entryDx=0;entryDy=0;entryPerimeter=0;" edge="1">
          <mxGeometry as="geometry" height="50" width="50" relative="1">
            <mxPoint as="sourcePoint" y="924.84" x="768.2" />
            <mxPoint as="targetPoint" y="924.7100000000001" x="889.3700000000001" />
          </mxGeometry>
        </mxCell>
        <mxCell id="cYIk8vQscPwPbdmaifht-46" value="id_busA_mux2" parent="cYIk8vQscPwPbdmaifht-45" vertex="1" style="edgeLabel;html=1;align=center;verticalAlign=middle;resizable=0;points=[];" connectable="0">
          <mxGeometry as="geometry" y="-1" x="0.235" relative="1">
            <mxPoint as="offset" y="-3.92" x="-24.86" />
          </mxGeometry>
        </mxCell>
        <mxCell id="cYIk8vQscPwPbdmaifht-47" value="branchforwardB" parent="1" style="endArrow=classic;html=1;exitX=0.75;exitY=0;exitDx=0;exitDy=0;entryX=0.25;entryY=1;entryDx=0;entryDy=0;" edge="1" target="cYIk8vQscPwPbdmaifht-44">
          <mxGeometry as="geometry" height="50" width="50" x="-0.3246" relative="1">
            <mxPoint as="sourcePoint" y="1150" x="630" />
            <mxPoint as="targetPoint" y="1040" x="674.55" />
            <Array as="points">
              <mxPoint y="1120" x="630.5" />
              <mxPoint y="1120" x="674.5" />
              <mxPoint y="970" x="675" />
              <mxPoint y="970" x="732" />
            </Array>
            <mxPoint as="offset" />
          </mxGeometry>
        </mxCell>
        <mxCell id="cYIk8vQscPwPbdmaifht-48" value="" parent="1" style="endArrow=classic;html=1;entryX=0.75;entryY=1;entryDx=0;entryDy=0;" edge="1" target="cYIk8vQscPwPbdmaifht-41">
          <mxGeometry as="geometry" height="50" width="50" relative="1">
            <mxPoint as="sourcePoint" y="1080" x="756" />
            <mxPoint as="targetPoint" y="1060" x="800" />
          </mxGeometry>
        </mxCell>
        <mxCell id="cYIk8vQscPwPbdmaifht-49" value="ex_result&lt;br&gt;mem_forward&lt;br&gt;wr_forward" parent="cYIk8vQscPwPbdmaifht-48" vertex="1" style="edgeLabel;html=1;align=center;verticalAlign=middle;resizable=0;points=[];" connectable="0">
          <mxGeometry as="geometry" y="-6" x="-1" relative="1">
            <mxPoint as="offset" y="19.98" x="18" />
          </mxGeometry>
        </mxCell>
        <mxCell id="cYIk8vQscPwPbdmaifht-50" value="" parent="1" style="endArrow=classic;html=1;entryX=0.75;entryY=1;entryDx=0;entryDy=0;" edge="1" target="cYIk8vQscPwPbdmaifht-44">
          <mxGeometry as="geometry" height="50" width="50" relative="1">
            <mxPoint as="sourcePoint" y="1060" x="756" />
            <mxPoint as="targetPoint" y="1020" x="810" />
            <Array as="points">
              <mxPoint y="1060" x="780" />
              <mxPoint y="960" x="780" />
              <mxPoint y="960" x="756" />
            </Array>
          </mxGeometry>
        </mxCell>
        <mxCell id="cYIk8vQscPwPbdmaifht-51" value="" parent="1" style="endArrow=classic;html=1;exitX=0.979;exitY=0.15;exitDx=0;exitDy=0;exitPerimeter=0;" source="cYIk8vQscPwPbdmaifht-21" edge="1">
          <mxGeometry as="geometry" height="50" width="50" relative="1">
            <mxPoint as="sourcePoint" y="940" x="530" />
            <mxPoint as="targetPoint" y="817" x="889" />
          </mxGeometry>
        </mxCell>
        <mxCell id="cYIk8vQscPwPbdmaifht-52" value="id_regWr,id_memtoreg......" parent="cYIk8vQscPwPbdmaifht-51" vertex="1" style="edgeLabel;html=1;align=center;verticalAlign=middle;resizable=0;points=[];" connectable="0">
          <mxGeometry as="geometry" x="0.0876" relative="1">
            <mxPoint as="offset" />
          </mxGeometry>
        </mxCell>
        <mxCell id="cYIk8vQscPwPbdmaifht-53" value="alu" parent="1" vertex="1" style="rounded=0;whiteSpace=wrap;html=1;">
          <mxGeometry as="geometry" height="170" width="100" y="840" x="1220" />
        </mxCell>
        <mxCell id="cYIk8vQscPwPbdmaifht-54" value="" parent="1" style="endArrow=classic;html=1;entryX=0.385;entryY=1.002;entryDx=0;entryDy=0;entryPerimeter=0;" edge="1" target="cYIk8vQscPwPbdmaifht-83">
          <mxGeometry as="geometry" height="50" width="50" relative="1">
            <mxPoint as="sourcePoint" y="918" x="570" />
            <mxPoint as="targetPoint" y="860" x="640" />
            <Array as="points">
              <mxPoint y="760" x="570" />
              <mxPoint y="760" x="515" />
            </Array>
          </mxGeometry>
        </mxCell>
        <mxCell id="cYIk8vQscPwPbdmaifht-55" value="id_Highout&lt;br&gt;id_Lowout" parent="cYIk8vQscPwPbdmaifht-54" vertex="1" style="edgeLabel;html=1;align=center;verticalAlign=middle;resizable=0;points=[];" connectable="0">
          <mxGeometry as="geometry" x="-0.1792" relative="1">
            <mxPoint as="offset" y="57" x="2.609024107869118e-15" />
          </mxGeometry>
        </mxCell>
        <mxCell id="cYIk8vQscPwPbdmaifht-56" value="cp0" parent="1" vertex="1" style="rounded=0;whiteSpace=wrap;html=1;">
          <mxGeometry as="geometry" height="90" width="70" y="1050" x="550" />
        </mxCell>
        <mxCell id="cYIk8vQscPwPbdmaifht-57" value="" parent="1" style="endArrow=classic;html=1;exitX=0.893;exitY=1.042;exitDx=0;exitDy=0;exitPerimeter=0;entryX=0;entryY=0.25;entryDx=0;entryDy=0;" source="cYIk8vQscPwPbdmaifht-21" edge="1" target="cYIk8vQscPwPbdmaifht-56">
          <mxGeometry as="geometry" height="50" width="50" relative="1">
            <mxPoint as="sourcePoint" y="1100" x="610" />
            <mxPoint as="targetPoint" y="1050" x="660" />
            <Array as="points">
              <mxPoint y="1073" x="503" />
            </Array>
          </mxGeometry>
        </mxCell>
        <mxCell id="cYIk8vQscPwPbdmaifht-58" value="id_cp0op&lt;br&gt;id_cs&lt;br&gt;id_sel" parent="cYIk8vQscPwPbdmaifht-57" vertex="1" style="edgeLabel;html=1;align=center;verticalAlign=middle;resizable=0;points=[];" connectable="0">
          <mxGeometry as="geometry" x="0.3659" relative="1">
            <mxPoint as="offset" y="-14.62" />
          </mxGeometry>
        </mxCell>
        <mxCell id="cYIk8vQscPwPbdmaifht-59" value="" parent="1" style="endArrow=classic;html=1;entryX=-0.016;entryY=0.143;entryDx=0;entryDy=0;entryPerimeter=0;" edge="1" target="cYIk8vQscPwPbdmaifht-56">
          <mxGeometry as="geometry" height="50" width="50" relative="1">
            <mxPoint as="sourcePoint" y="990" x="520" />
            <mxPoint as="targetPoint" y="890" x="660" />
            <Array as="points">
              <mxPoint y="1063" x="520" />
            </Array>
          </mxGeometry>
        </mxCell>
        <mxCell id="cYIk8vQscPwPbdmaifht-60" value="cp0forward" parent="1" vertex="1" style="rounded=0;whiteSpace=wrap;html=1;">
          <mxGeometry as="geometry" height="40" width="80" y="1220" x="540" />
        </mxCell>
        <mxCell id="cYIk8vQscPwPbdmaifht-61" value="mux4&lt;br&gt;(double)&lt;br&gt;data &amp;amp; pc" parent="1" vertex="1" style="rounded=0;whiteSpace=wrap;html=1;">
          <mxGeometry as="geometry" height="40" width="70" y="1160" x="440" />
        </mxCell>
        <mxCell id="cYIk8vQscPwPbdmaifht-62" value="cp0forward" parent="1" style="endArrow=classic;html=1;exitX=0;exitY=0.5;exitDx=0;exitDy=0;entryX=0.5;entryY=1;entryDx=0;entryDy=0;" source="cYIk8vQscPwPbdmaifht-60" edge="1" target="cYIk8vQscPwPbdmaifht-61">
          <mxGeometry as="geometry" height="50" width="50" x="-0.037" relative="1">
            <mxPoint as="sourcePoint" y="1180" x="610" />
            <mxPoint as="targetPoint" y="1130" x="660" />
            <Array as="points">
              <mxPoint y="1240" x="475" />
            </Array>
            <mxPoint as="offset" />
          </mxGeometry>
        </mxCell>
        <mxCell id="cYIk8vQscPwPbdmaifht-63" value="" parent="1" style="endArrow=classic;html=1;entryX=0.75;entryY=1;entryDx=0;entryDy=0;" edge="1" target="cYIk8vQscPwPbdmaifht-16">
          <mxGeometry as="geometry" height="50" width="50" relative="1">
            <mxPoint as="sourcePoint" y="1160" x="460" />
            <mxPoint as="targetPoint" y="1130" x="660" />
            <Array as="points">
              <mxPoint y="1130" x="458" />
              <mxPoint y="1130" x="407" />
            </Array>
          </mxGeometry>
        </mxCell>
        <mxCell id="cYIk8vQscPwPbdmaifht-64" value="id_pcout_mux" parent="cYIk8vQscPwPbdmaifht-63" vertex="1" style="edgeLabel;html=1;align=center;verticalAlign=middle;resizable=0;points=[];" connectable="0">
          <mxGeometry as="geometry" y="11" x="-0.5744" relative="1">
            <mxPoint as="offset" y="-14" x="-10" />
          </mxGeometry>
        </mxCell>
        <mxCell id="cYIk8vQscPwPbdmaifht-65" value="" parent="1" style="endArrow=classic;html=1;exitX=0.25;exitY=1;exitDx=0;exitDy=0;entryX=1;entryY=0.5;entryDx=0;entryDy=0;" source="cYIk8vQscPwPbdmaifht-56" edge="1" target="cYIk8vQscPwPbdmaifht-61">
          <mxGeometry as="geometry" height="50" width="50" relative="1">
            <mxPoint as="sourcePoint" y="1180" x="610" />
            <mxPoint as="targetPoint" y="1130" x="660" />
            <Array as="points">
              <mxPoint y="1180" x="568" />
            </Array>
          </mxGeometry>
        </mxCell>
        <mxCell id="cYIk8vQscPwPbdmaifht-66" value="id_pcout" parent="cYIk8vQscPwPbdmaifht-65" vertex="1" style="edgeLabel;html=1;align=center;verticalAlign=middle;resizable=0;points=[];" connectable="0">
          <mxGeometry as="geometry" y="-20" x="-0.1869" relative="1">
            <mxPoint as="offset" y="20" x="-20" />
          </mxGeometry>
        </mxCell>
        <mxCell id="cYIk8vQscPwPbdmaifht-67" value="" parent="1" style="endArrow=classic;html=1;entryX=0.25;entryY=1;entryDx=0;entryDy=0;" edge="1" target="cYIk8vQscPwPbdmaifht-61">
          <mxGeometry as="geometry" height="50" width="50" relative="1">
            <mxPoint as="sourcePoint" y="1270" x="458" />
            <mxPoint as="targetPoint" y="1130" x="660" />
          </mxGeometry>
        </mxCell>
        <mxCell id="cYIk8vQscPwPbdmaifht-68" value="&lt;font style=&quot;font-size: 11px&quot;&gt;ex_busB_mux2&lt;br&gt;mem_busB_mux2&lt;br&gt;wr_busB_mux2&lt;/font&gt;" parent="1" vertex="1" style="text;html=1;align=center;verticalAlign=middle;resizable=0;points=[];autosize=1;">
          <mxGeometry as="geometry" height="50" width="100" y="1260" x="410" />
        </mxCell>
        <mxCell id="cYIk8vQscPwPbdmaifht-69" value="" parent="1" style="endArrow=classic;html=1;entryX=0.992;entryY=0.416;entryDx=0;entryDy=0;entryPerimeter=0;" edge="1" target="cYIk8vQscPwPbdmaifht-16">
          <mxGeometry as="geometry" height="50" width="50" relative="1">
            <mxPoint as="sourcePoint" y="1040" x="490" />
            <mxPoint as="targetPoint" y="970" x="660" />
          </mxGeometry>
        </mxCell>
        <mxCell id="cYIk8vQscPwPbdmaifht-70" value="" parent="1" style="endArrow=classic;html=1;exitX=0;exitY=0.5;exitDx=0;exitDy=0;entryX=-0.05;entryY=0.926;entryDx=0;entryDy=0;entryPerimeter=0;" source="cYIk8vQscPwPbdmaifht-61" edge="1" target="cYIk8vQscPwPbdmaifht-31">
          <mxGeometry as="geometry" height="50" width="50" relative="1">
            <mxPoint as="sourcePoint" y="1210" x="650" />
            <mxPoint as="targetPoint" y="1160" x="700" />
            <Array as="points">
              <mxPoint y="1180" x="360" />
              <mxPoint y="1430" x="360" />
              <mxPoint y="1430" x="830" />
              <mxPoint y="1049" x="830" />
            </Array>
          </mxGeometry>
        </mxCell>
        <mxCell id="cYIk8vQscPwPbdmaifht-71" value="id_doutmux" parent="cYIk8vQscPwPbdmaifht-70" vertex="1" style="edgeLabel;html=1;align=center;verticalAlign=middle;resizable=0;points=[];" connectable="0">
          <mxGeometry as="geometry" y="-1" x="0.9329" relative="1">
            <mxPoint as="offset" y="0.16" x="-19.01" />
          </mxGeometry>
        </mxCell>
        <mxCell id="cYIk8vQscPwPbdmaifht-72" value="mux2" parent="1" vertex="1" style="rounded=0;whiteSpace=wrap;html=1;">
          <mxGeometry as="geometry" height="40" width="20" y="840" x="610" />
        </mxCell>
        <mxCell id="cYIk8vQscPwPbdmaifht-73" value="id_hlsel" parent="1" style="endArrow=classic;html=1;entryX=0.5;entryY=0;entryDx=0;entryDy=0;" edge="1" target="cYIk8vQscPwPbdmaifht-72">
          <mxGeometry as="geometry" height="50" width="50" relative="1">
            <mxPoint as="sourcePoint" y="820" x="620" />
            <mxPoint as="targetPoint" y="780" x="700" />
          </mxGeometry>
        </mxCell>
        <mxCell id="cYIk8vQscPwPbdmaifht-74" value="" parent="1" style="endArrow=classic;html=1;exitX=1;exitY=0.5;exitDx=0;exitDy=0;" source="cYIk8vQscPwPbdmaifht-72" edge="1" target="cYIk8vQscPwPbdmaifht-76">
          <mxGeometry as="geometry" height="50" width="50" relative="1">
            <mxPoint as="sourcePoint" y="830" x="650" />
            <mxPoint as="targetPoint" y="740" x="660" />
            <Array as="points">
              <mxPoint y="860" x="660" />
              <mxPoint y="765" x="660" />
            </Array>
          </mxGeometry>
        </mxCell>
        <mxCell id="cYIk8vQscPwPbdmaifht-75" value="id_HL" parent="cYIk8vQscPwPbdmaifht-74" vertex="1" style="edgeLabel;html=1;align=center;verticalAlign=middle;resizable=0;points=[];" connectable="0">
          <mxGeometry as="geometry" x="0.4465" relative="1">
            <mxPoint as="offset" />
          </mxGeometry>
        </mxCell>
        <mxCell id="cYIk8vQscPwPbdmaifht-76" value="mux4" parent="1" vertex="1" style="rounded=0;whiteSpace=wrap;html=1;">
          <mxGeometry as="geometry" height="50" width="30" y="740" x="680" />
        </mxCell>
        <mxCell id="cYIk8vQscPwPbdmaifht-77" value="" parent="1" style="endArrow=classic;html=1;entryX=0.5;entryY=0;entryDx=0;entryDy=0;" edge="1" target="cYIk8vQscPwPbdmaifht-76">
          <mxGeometry as="geometry" height="50" width="50" relative="1">
            <mxPoint as="sourcePoint" y="690" x="695" />
            <mxPoint as="targetPoint" y="780" x="700" />
          </mxGeometry>
        </mxCell>
        <mxCell id="cYIk8vQscPwPbdmaifht-78" value="ex_mult&lt;br&gt;mem_mult&lt;br&gt;wr_mult" parent="1" vertex="1" style="text;html=1;align=center;verticalAlign=middle;resizable=0;points=[];autosize=1;">
          <mxGeometry as="geometry" height="50" width="70" y="650" x="660" />
        </mxCell>
        <mxCell id="cYIk8vQscPwPbdmaifht-79" value="" parent="1" style="endArrow=classic;html=1;entryX=0;entryY=0.25;entryDx=0;entryDy=0;" edge="1" target="cYIk8vQscPwPbdmaifht-76">
          <mxGeometry as="geometry" height="50" width="50" relative="1">
            <mxPoint as="sourcePoint" y="820" x="620" />
            <mxPoint as="targetPoint" y="680" x="700" />
            <Array as="points">
              <mxPoint y="753" x="620" />
            </Array>
          </mxGeometry>
        </mxCell>
        <mxCell id="cYIk8vQscPwPbdmaifht-80" value="id_hlsel" parent="cYIk8vQscPwPbdmaifht-79" vertex="1" style="edgeLabel;html=1;align=center;verticalAlign=middle;resizable=0;points=[];" connectable="0">
          <mxGeometry as="geometry" y="-22" x="0.0551" relative="1">
            <mxPoint as="offset" y="-25" x="22" />
          </mxGeometry>
        </mxCell>
        <mxCell id="cYIk8vQscPwPbdmaifht-81" value="" parent="1" style="endArrow=classic;html=1;exitX=1;exitY=0.5;exitDx=0;exitDy=0;entryX=-0.033;entryY=0.049;entryDx=0;entryDy=0;entryPerimeter=0;" source="cYIk8vQscPwPbdmaifht-76" edge="1" target="cYIk8vQscPwPbdmaifht-31">
          <mxGeometry as="geometry" height="50" width="50" relative="1">
            <mxPoint as="sourcePoint" y="730" x="650" />
            <mxPoint as="targetPoint" y="680" x="700" />
            <Array as="points">
              <mxPoint y="765" x="740" />
              <mxPoint y="794" x="740" />
            </Array>
          </mxGeometry>
        </mxCell>
        <mxCell id="cYIk8vQscPwPbdmaifht-82" value="id_HL_mux4" parent="cYIk8vQscPwPbdmaifht-81" vertex="1" style="edgeLabel;html=1;align=center;verticalAlign=middle;resizable=0;points=[];" connectable="0">
          <mxGeometry as="geometry" x="0.0333" relative="1">
            <mxPoint as="offset" />
          </mxGeometry>
        </mxCell>
        <mxCell id="cYIk8vQscPwPbdmaifht-83" value="mux4High&lt;br&gt;mux4Low" parent="1" vertex="1" style="rounded=0;whiteSpace=wrap;html=1;">
          <mxGeometry as="geometry" height="70" width="40" y="660" x="500" />
        </mxCell>
        <mxCell id="cYIk8vQscPwPbdmaifht-84" value="HLforward" parent="1" vertex="1" style="rounded=0;whiteSpace=wrap;html=1;">
          <mxGeometry as="geometry" height="50" width="80" y="570" x="640" />
        </mxCell>
        <mxCell id="cYIk8vQscPwPbdmaifht-85" value="" parent="1" style="endArrow=classic;html=1;entryX=0.425;entryY=0.008;entryDx=0;entryDy=0;entryPerimeter=0;" edge="1" target="cYIk8vQscPwPbdmaifht-84">
          <mxGeometry as="geometry" height="50" width="50" relative="1">
            <mxPoint as="sourcePoint" y="550" x="674" />
            <mxPoint as="targetPoint" y="510" x="700" />
          </mxGeometry>
        </mxCell>
        <mxCell id="cYIk8vQscPwPbdmaifht-86" value="ex_Highin,mem_Highin,wr_Highin&lt;br&gt;ex_Lowin,mem_Lowin,wr_Lowin" parent="1" vertex="1" style="text;html=1;align=center;verticalAlign=middle;resizable=0;points=[];autosize=1;">
          <mxGeometry as="geometry" height="30" width="200" y="520" x="568.2" />
        </mxCell>
        <mxCell id="cYIk8vQscPwPbdmaifht-87" value="" parent="1" style="endArrow=classic;html=1;exitX=-0.044;exitY=0.376;exitDx=0;exitDy=0;exitPerimeter=0;entryX=0.5;entryY=0;entryDx=0;entryDy=0;" source="cYIk8vQscPwPbdmaifht-84" edge="1" target="cYIk8vQscPwPbdmaifht-83">
          <mxGeometry as="geometry" height="50" width="50" relative="1">
            <mxPoint as="sourcePoint" y="730" x="650" />
            <mxPoint as="targetPoint" y="680" x="700" />
            <Array as="points">
              <mxPoint y="589" x="520" />
            </Array>
          </mxGeometry>
        </mxCell>
        <mxCell id="cYIk8vQscPwPbdmaifht-88" value="forwardLow&lt;br&gt;forwardHigh" parent="cYIk8vQscPwPbdmaifht-87" vertex="1" style="edgeLabel;html=1;align=center;verticalAlign=middle;resizable=0;points=[];" connectable="0">
          <mxGeometry as="geometry" y="1" x="-0.1335" relative="1">
            <mxPoint as="offset" x="13.1" />
          </mxGeometry>
        </mxCell>
        <mxCell id="cYIk8vQscPwPbdmaifht-89" value="" parent="1" style="endArrow=classic;html=1;entryX=0;entryY=0.25;entryDx=0;entryDy=0;" edge="1" target="cYIk8vQscPwPbdmaifht-83">
          <mxGeometry as="geometry" height="50" width="50" relative="1">
            <mxPoint as="sourcePoint" y="570" x="440" />
            <mxPoint as="targetPoint" y="680" x="700" />
            <Array as="points">
              <mxPoint y="678" x="440" />
            </Array>
          </mxGeometry>
        </mxCell>
        <mxCell id="cYIk8vQscPwPbdmaifht-90" value="ex_busA_mux2,mem_busA_mux2,wr_busA_mux2&lt;br&gt;" parent="1" vertex="1" style="text;html=1;align=center;verticalAlign=middle;resizable=0;points=[];autosize=1;">
          <mxGeometry as="geometry" height="20" width="280" y="550" x="290" />
        </mxCell>
        <mxCell id="cYIk8vQscPwPbdmaifht-91" value="" parent="1" style="endArrow=classic;html=1;exitX=1;exitY=0.5;exitDx=0;exitDy=0;entryX=-0.208;entryY=0.521;entryDx=0;entryDy=0;entryPerimeter=0;" source="cYIk8vQscPwPbdmaifht-83" edge="1" target="cYIk8vQscPwPbdmaifht-72">
          <mxGeometry as="geometry" height="50" width="50" relative="1">
            <mxPoint as="sourcePoint" y="730" x="650" />
            <mxPoint as="targetPoint" y="680" x="700" />
            <Array as="points">
              <mxPoint y="695" x="580" />
              <mxPoint y="861" x="580" />
            </Array>
          </mxGeometry>
        </mxCell>
        <mxCell id="cYIk8vQscPwPbdmaifht-92" value="id_Highoutmux4&lt;br&gt;id_Lowoutmux4" parent="cYIk8vQscPwPbdmaifht-91" vertex="1" style="edgeLabel;html=1;align=center;verticalAlign=middle;resizable=0;points=[];" connectable="0">
          <mxGeometry as="geometry" x="-0.1894" relative="1">
            <mxPoint as="offset" y="-8.79" />
          </mxGeometry>
        </mxCell>
        <mxCell id="cYIk8vQscPwPbdmaifht-110" value="ex_busA" parent="1" style="endArrow=classic;html=1;entryX=0;entryY=0.75;entryDx=0;entryDy=0;" edge="1">
          <mxGeometry as="geometry" height="50" width="50" relative="1">
            <mxPoint as="sourcePoint" y="808" x="978" />
            <mxPoint as="targetPoint" y="807.5" x="1180" />
          </mxGeometry>
        </mxCell>
        <mxCell id="cYIk8vQscPwPbdmaifht-124" value="SignExt" parent="1" vertex="1" style="rounded=0;whiteSpace=wrap;html=1;">
          <mxGeometry as="geometry" height="60" width="50" y="840" x="720" />
        </mxCell>
        <mxCell id="cYIk8vQscPwPbdmaifht-125" value="id_imm16&lt;br&gt;id_Extop" parent="1" style="endArrow=classic;html=1;exitX=1;exitY=0.818;exitDx=0;exitDy=0;exitPerimeter=0;" source="cYIk8vQscPwPbdmaifht-21" edge="1">
          <mxGeometry as="geometry" height="50" width="50" x="0.5238" relative="1">
            <mxPoint as="sourcePoint" y="930" x="810" />
            <mxPoint as="targetPoint" y="890" x="720" />
            <mxPoint as="offset" />
          </mxGeometry>
        </mxCell>
        <mxCell id="cYIk8vQscPwPbdmaifht-126" value="" parent="1" style="endArrow=classic;html=1;exitX=1;exitY=0.5;exitDx=0;exitDy=0;entryX=-0.023;entryY=0.311;entryDx=0;entryDy=0;entryPerimeter=0;" source="cYIk8vQscPwPbdmaifht-124" edge="1" target="cYIk8vQscPwPbdmaifht-31">
          <mxGeometry as="geometry" height="50" width="50" relative="1">
            <mxPoint as="sourcePoint" y="930" x="810" />
            <mxPoint as="targetPoint" y="880" x="860" />
          </mxGeometry>
        </mxCell>
        <mxCell id="cYIk8vQscPwPbdmaifht-127" value="id_imm32" parent="cYIk8vQscPwPbdmaifht-126" vertex="1" style="edgeLabel;html=1;align=center;verticalAlign=middle;resizable=0;points=[];" connectable="0">
          <mxGeometry as="geometry" y="-2" x="0.2198" relative="1">
            <mxPoint as="offset" y="-2.12" x="-11.72" />
          </mxGeometry>
        </mxCell>
        <mxCell id="cYIk8vQscPwPbdmaifht-128" value="" parent="1" style="endArrow=classic;html=1;exitX=1;exitY=0.75;exitDx=0;exitDy=0;" source="cYIk8vQscPwPbdmaifht-31" edge="1">
          <mxGeometry as="geometry" height="50" width="50" relative="1">
            <mxPoint as="sourcePoint" y="930" x="810" />
            <mxPoint as="targetPoint" y="970" x="1130" />
            <Array as="points">
              <mxPoint y="998" x="1130" />
            </Array>
          </mxGeometry>
        </mxCell>
        <mxCell id="cYIk8vQscPwPbdmaifht-129" value="ex_imm32&lt;br&gt;ex_alusrc" parent="cYIk8vQscPwPbdmaifht-128" vertex="1" style="edgeLabel;html=1;align=center;verticalAlign=middle;resizable=0;points=[];" connectable="0">
          <mxGeometry as="geometry" y="1" x="-0.3615" relative="1">
            <mxPoint as="offset" />
          </mxGeometry>
        </mxCell>
        <mxCell id="cYIk8vQscPwPbdmaifht-132" value="" parent="1" style="endArrow=classic;html=1;exitX=1;exitY=0.901;exitDx=0;exitDy=0;exitPerimeter=0;entryX=0.46;entryY=0.998;entryDx=0;entryDy=0;entryPerimeter=0;" source="cYIk8vQscPwPbdmaifht-31" edge="1" target="cYIk8vQscPwPbdmaifht-53">
          <mxGeometry as="geometry" height="50" width="50" relative="1">
            <mxPoint as="sourcePoint" y="930" x="1440" />
            <mxPoint as="targetPoint" y="880" x="1490" />
            <Array as="points">
              <mxPoint y="1040" x="1266" />
            </Array>
          </mxGeometry>
        </mxCell>
        <mxCell id="cYIk8vQscPwPbdmaifht-133" value="ex_aluop&lt;br&gt;ex_shamt&lt;br&gt;ex_checkover" parent="cYIk8vQscPwPbdmaifht-132" vertex="1" style="edgeLabel;html=1;align=center;verticalAlign=middle;resizable=0;points=[];" connectable="0">
          <mxGeometry as="geometry" x="0.3031" relative="1">
            <mxPoint as="offset" y="-0.19" x="-85" />
          </mxGeometry>
        </mxCell>
        <mxCell id="cYIk8vQscPwPbdmaifht-134" value="EXMEM" parent="1" vertex="1" style="rounded=0;whiteSpace=wrap;html=1;">
          <mxGeometry as="geometry" height="290" width="90" y="780" x="1430" />
        </mxCell>
        <mxCell id="cYIk8vQscPwPbdmaifht-135" value="" parent="1" style="endArrow=classic;html=1;entryX=-0.008;entryY=0.166;entryDx=0;entryDy=0;entryPerimeter=0;" edge="1" target="cYIk8vQscPwPbdmaifht-134">
          <mxGeometry as="geometry" height="50" width="50" relative="1">
            <mxPoint as="sourcePoint" y="828" x="979" />
            <mxPoint as="targetPoint" y="880" x="1490" />
          </mxGeometry>
        </mxCell>
        <mxCell id="cYIk8vQscPwPbdmaifht-136" value="ex_regWr...." parent="cYIk8vQscPwPbdmaifht-135" vertex="1" style="edgeLabel;html=1;align=center;verticalAlign=middle;resizable=0;points=[];" connectable="0">
          <mxGeometry as="geometry" y="2" x="0.3431" relative="1">
            <mxPoint as="offset" />
          </mxGeometry>
        </mxCell>
        <mxCell id="cYIk8vQscPwPbdmaifht-137" value="" parent="1" style="endArrow=classic;html=1;exitX=1;exitY=0.5;exitDx=0;exitDy=0;entryX=0;entryY=0.5;entryDx=0;entryDy=0;" source="cYIk8vQscPwPbdmaifht-53" edge="1" target="cYIk8vQscPwPbdmaifht-134">
          <mxGeometry as="geometry" height="50" width="50" relative="1">
            <mxPoint as="sourcePoint" y="930" x="1440" />
            <mxPoint as="targetPoint" y="880" x="1490" />
          </mxGeometry>
        </mxCell>
        <mxCell id="cYIk8vQscPwPbdmaifht-138" value="ex_result&lt;br&gt;ex_mult&lt;br&gt;...." parent="cYIk8vQscPwPbdmaifht-137" vertex="1" style="edgeLabel;html=1;align=center;verticalAlign=middle;resizable=0;points=[];" connectable="0">
          <mxGeometry as="geometry" x="-0.2932" relative="1">
            <mxPoint as="offset" x="8.28" />
          </mxGeometry>
        </mxCell>
        <mxCell id="cYIk8vQscPwPbdmaifht-139" value="mux3" parent="1" vertex="1" style="rounded=0;whiteSpace=wrap;html=1;">
          <mxGeometry as="geometry" height="60" width="40" y="1080" x="1270" />
        </mxCell>
        <mxCell id="cYIk8vQscPwPbdmaifht-140" value="" parent="1" style="endArrow=classic;html=1;exitX=0.997;exitY=0.83;exitDx=0;exitDy=0;exitPerimeter=0;entryX=0;entryY=0.5;entryDx=0;entryDy=0;" source="cYIk8vQscPwPbdmaifht-31" edge="1" target="cYIk8vQscPwPbdmaifht-139">
          <mxGeometry as="geometry" height="50" width="50" relative="1">
            <mxPoint as="sourcePoint" y="1020" x="1160" />
            <mxPoint as="targetPoint" y="970" x="1210" />
            <Array as="points">
              <mxPoint y="1021" x="1180" />
              <mxPoint y="1110" x="1180" />
            </Array>
          </mxGeometry>
        </mxCell>
        <mxCell id="cYIk8vQscPwPbdmaifht-141" value="ex_rb&lt;br&gt;ex_rd&lt;br&gt;32‘d31&lt;br&gt;ex_regDst" parent="cYIk8vQscPwPbdmaifht-140" vertex="1" style="edgeLabel;html=1;align=center;verticalAlign=middle;resizable=0;points=[];" connectable="0">
          <mxGeometry as="geometry" y="-1" x="0.8269" relative="1">
            <mxPoint as="offset" y="19" x="-11.94" />
          </mxGeometry>
        </mxCell>
        <mxCell id="cYIk8vQscPwPbdmaifht-142" value="" parent="1" style="endArrow=classic;html=1;exitX=1;exitY=0.5;exitDx=0;exitDy=0;entryX=0;entryY=0.75;entryDx=0;entryDy=0;" source="cYIk8vQscPwPbdmaifht-139" edge="1" target="cYIk8vQscPwPbdmaifht-134">
          <mxGeometry as="geometry" height="50" width="50" relative="1">
            <mxPoint as="sourcePoint" y="1020" x="1160" />
            <mxPoint as="targetPoint" y="970" x="1210" />
            <Array as="points">
              <mxPoint y="1110" x="1360" />
              <mxPoint y="998" x="1360" />
            </Array>
          </mxGeometry>
        </mxCell>
        <mxCell id="cYIk8vQscPwPbdmaifht-143" value="ex_rw" parent="cYIk8vQscPwPbdmaifht-142" vertex="1" style="edgeLabel;html=1;align=center;verticalAlign=middle;resizable=0;points=[];" connectable="0">
          <mxGeometry as="geometry" y="-1" x="0.706" relative="1">
            <mxPoint as="offset" />
          </mxGeometry>
        </mxCell>
        <mxCell id="cYIk8vQscPwPbdmaifht-153" value="dm_4k" parent="1" vertex="1" style="rounded=0;whiteSpace=wrap;html=1;">
          <mxGeometry as="geometry" height="160" width="90" y="955" x="1730" />
        </mxCell>
        <mxCell id="cYIk8vQscPwPbdmaifht-154" value="" parent="1" style="endArrow=classic;html=1;" edge="1">
          <mxGeometry as="geometry" height="50" width="50" relative="1">
            <mxPoint as="sourcePoint" y="1140" x="1790" />
            <mxPoint as="targetPoint" y="1115" x="1790" />
          </mxGeometry>
        </mxCell>
        <mxCell id="cYIk8vQscPwPbdmaifht-155" value="clk" parent="1" vertex="1" style="text;html=1;align=center;verticalAlign=middle;resizable=0;points=[];autosize=1;">
          <mxGeometry as="geometry" height="20" width="30" y="1140" x="1770" />
        </mxCell>
        <mxCell id="cYIk8vQscPwPbdmaifht-156" value="" parent="1" style="endArrow=classic;html=1;entryX=0;entryY=0.25;entryDx=0;entryDy=0;" edge="1" target="cYIk8vQscPwPbdmaifht-153">
          <mxGeometry as="geometry" height="50" width="50" relative="1">
            <mxPoint as="sourcePoint" y="995" x="1660" />
            <mxPoint as="targetPoint" y="880" x="1770" />
          </mxGeometry>
        </mxCell>
        <mxCell id="cYIk8vQscPwPbdmaifht-157" value="mem_op&lt;br&gt;mem_memWr&lt;br&gt;mem_result&lt;br&gt;mem_busB" parent="cYIk8vQscPwPbdmaifht-156" vertex="1" style="edgeLabel;html=1;align=center;verticalAlign=middle;resizable=0;points=[];" connectable="0">
          <mxGeometry as="geometry" y="-1" x="-0.535" relative="1">
            <mxPoint as="offset" y="4" x="19.31" />
          </mxGeometry>
        </mxCell>
        <mxCell id="cYIk8vQscPwPbdmaifht-158" value="MEMWR" parent="1" vertex="1" style="rounded=0;whiteSpace=wrap;html=1;">
          <mxGeometry as="geometry" height="290" width="90" y="780" x="1860" />
        </mxCell>
        <mxCell id="cYIk8vQscPwPbdmaifht-159" value="mem_Dataout" parent="1" style="endArrow=classic;html=1;exitX=1;exitY=0.5;exitDx=0;exitDy=0;entryX=-0.026;entryY=0.879;entryDx=0;entryDy=0;entryPerimeter=0;" source="cYIk8vQscPwPbdmaifht-153" edge="1" target="cYIk8vQscPwPbdmaifht-158">
          <mxGeometry as="geometry" height="50" width="50" relative="1">
            <mxPoint as="sourcePoint" y="930" x="1720" />
            <mxPoint as="targetPoint" y="880" x="1770" />
          </mxGeometry>
        </mxCell>
        <mxCell id="cYIk8vQscPwPbdmaifht-160" value="mem_regWr..." parent="1" style="endArrow=classic;html=1;exitX=1;exitY=0.25;exitDx=0;exitDy=0;entryX=0;entryY=0.25;entryDx=0;entryDy=0;" source="cYIk8vQscPwPbdmaifht-134" edge="1" target="cYIk8vQscPwPbdmaifht-158">
          <mxGeometry as="geometry" height="50" width="50" relative="1">
            <mxPoint as="sourcePoint" y="930" x="1720" />
            <mxPoint as="targetPoint" y="880" x="1770" />
          </mxGeometry>
        </mxCell>
        <mxCell id="cYIk8vQscPwPbdmaifht-162" value="mux4" parent="1" vertex="1" style="rounded=0;whiteSpace=wrap;html=1;">
          <mxGeometry as="geometry" height="110" width="70" y="872.5" x="2030" />
        </mxCell>
        <mxCell id="cYIk8vQscPwPbdmaifht-163" value="wr_result&lt;br&gt;wr_Dataout&lt;br&gt;wr_busA_mux2&lt;br&gt;wr_HL&lt;br&gt;wr_memtoreg" parent="1" style="endArrow=classic;html=1;exitX=1;exitY=0.5;exitDx=0;exitDy=0;entryX=0;entryY=0.5;entryDx=0;entryDy=0;" source="cYIk8vQscPwPbdmaifht-158" edge="1" target="cYIk8vQscPwPbdmaifht-162">
          <mxGeometry as="geometry" height="50" width="50" relative="1">
            <mxPoint as="sourcePoint" y="1120" x="2020" />
            <mxPoint as="targetPoint" y="1070" x="2070" />
          </mxGeometry>
        </mxCell>
        <mxCell id="cYIk8vQscPwPbdmaifht-164" value="" parent="1" style="endArrow=classic;html=1;exitX=1;exitY=0.5;exitDx=0;exitDy=0;" source="cYIk8vQscPwPbdmaifht-162" edge="1">
          <mxGeometry as="geometry" height="50" width="50" relative="1">
            <mxPoint as="sourcePoint" y="1120" x="2020" />
            <mxPoint as="targetPoint" y="925" x="2150" />
          </mxGeometry>
        </mxCell>
        <mxCell id="cYIk8vQscPwPbdmaifht-165" value="wr_busW" parent="cYIk8vQscPwPbdmaifht-164" vertex="1" style="edgeLabel;html=1;align=center;verticalAlign=middle;resizable=0;points=[];" connectable="0">
          <mxGeometry as="geometry" x="-0.2229" relative="1">
            <mxPoint as="offset" />
          </mxGeometry>
        </mxCell>
        <mxCell id="cYIk8vQscPwPbdmaifht-166" value="" parent="1" style="endArrow=classic;html=1;entryX=0.75;entryY=1;entryDx=0;entryDy=0;" edge="1" target="cYIk8vQscPwPbdmaifht-32">
          <mxGeometry as="geometry" height="50" width="50" relative="1">
            <mxPoint as="sourcePoint" y="1050" x="628" />
            <mxPoint as="targetPoint" y="880" x="1070" />
          </mxGeometry>
        </mxCell>
        <mxCell id="cYIk8vQscPwPbdmaifht-167" value="wr_busW" parent="cYIk8vQscPwPbdmaifht-166" vertex="1" style="edgeLabel;html=1;align=center;verticalAlign=middle;resizable=0;points=[];" connectable="0">
          <mxGeometry as="geometry" y="-3" x="-1" relative="1">
            <mxPoint as="offset" y="2" x="-1" />
          </mxGeometry>
        </mxCell>
        <mxCell id="cYIk8vQscPwPbdmaifht-168" value="" parent="1" style="endArrow=classic;html=1;exitX=0.25;exitY=0;exitDx=0;exitDy=0;entryX=1;entryY=0.5;entryDx=0;entryDy=0;" source="cYIk8vQscPwPbdmaifht-21" edge="1" target="cYIk8vQscPwPbdmaifht-6">
          <mxGeometry as="geometry" height="50" width="50" relative="1">
            <mxPoint as="sourcePoint" y="930" x="510" />
            <mxPoint as="targetPoint" y="880" x="560" />
            <Array as="points">
              <mxPoint y="760" x="458" />
            </Array>
          </mxGeometry>
        </mxCell>
        <mxCell id="cYIk8vQscPwPbdmaifht-169" value="" parent="1" style="endArrow=classic;html=1;entryX=0.5;entryY=0;entryDx=0;entryDy=0;" edge="1" target="cYIk8vQscPwPbdmaifht-31">
          <mxGeometry as="geometry" height="50" width="50" relative="1">
            <mxPoint as="sourcePoint" y="750" x="935" />
            <mxPoint as="targetPoint" y="1010" x="1080" />
          </mxGeometry>
        </mxCell>
        <mxCell id="cYIk8vQscPwPbdmaifht-170" value="clk" parent="cYIk8vQscPwPbdmaifht-169" vertex="1" style="edgeLabel;html=1;align=center;verticalAlign=middle;resizable=0;points=[];" connectable="0">
          <mxGeometry as="geometry" y="-13" x="-1" relative="1">
            <mxPoint as="offset" x="13" />
          </mxGeometry>
        </mxCell>
        <mxCell id="cYIk8vQscPwPbdmaifht-171" value="" parent="1" style="endArrow=classic;html=1;entryX=0.5;entryY=0;entryDx=0;entryDy=0;" edge="1">
          <mxGeometry as="geometry" height="50" width="50" relative="1">
            <mxPoint as="sourcePoint" y="750" x="1610" />
            <mxPoint as="targetPoint" y="780" x="1610" />
          </mxGeometry>
        </mxCell>
        <mxCell id="cYIk8vQscPwPbdmaifht-172" value="clk" parent="cYIk8vQscPwPbdmaifht-171" vertex="1" style="edgeLabel;html=1;align=center;verticalAlign=middle;resizable=0;points=[];" connectable="0">
          <mxGeometry as="geometry" y="-13" x="-1" relative="1">
            <mxPoint as="offset" x="13" />
          </mxGeometry>
        </mxCell>
        <mxCell id="cYIk8vQscPwPbdmaifht-173" value="" parent="1" style="endArrow=classic;html=1;entryX=0.5;entryY=0;entryDx=0;entryDy=0;" edge="1">
          <mxGeometry as="geometry" height="50" width="50" relative="1">
            <mxPoint as="sourcePoint" y="750" x="1910" />
            <mxPoint as="targetPoint" y="780" x="1910" />
          </mxGeometry>
        </mxCell>
        <mxCell id="cYIk8vQscPwPbdmaifht-174" value="clk" parent="cYIk8vQscPwPbdmaifht-173" vertex="1" style="edgeLabel;html=1;align=center;verticalAlign=middle;resizable=0;points=[];" connectable="0">
          <mxGeometry as="geometry" y="-13" x="-1" relative="1">
            <mxPoint as="offset" x="13" />
          </mxGeometry>
        </mxCell>
      </root>
    </mxGraphModel>
  </diagram>
</mxfile>
